# xmcd
#
# Track frame offsets: 
#        150
#        10850
#        28101
#        41733
#        58153
#        70319
#        84940
#
# Disc length: 1301 seconds
#
# Revision: 0
# Processed by: cddbd v1.5.2PL0 Copyright (c) Steve Scherf et al.
# Submitted via: ExactAudioCopyFreeDBPlugin 1.0
#
DISCID=56051307
DTITLE=Various Artist - Double E Productions-Special Christmas Edition
DYEAR=2009
DGENRE=Bluegrass
TTITLE0=Gerald Smith - Everyone's A Kid At Christmas
TTITLE1=Clinton Gregory - Christmas Is For Kids
TTITLE2=David House - I'm So Glad He Came
TTITLE3=Jimmy Fortune - It's Christmas Time Again
TTITLE4=Rusty Davis - If Not Christmas, Anyday
TTITLE5=David Frizzell - Alleluia, Christ Is Born In Bethleham
TTITLE6=Gerald Smith - Quackin For Jesus
EXTD=
EXTT0=
EXTT1=
EXTT2=
EXTT3=
EXTT4=
EXTT5=
EXTT6=
PLAYORDER=
